<svg class=" " viewBox="0 0 1600 800"><path d="M1596,690.616C1596,690.616,1541.976,691.046,1519.598,687.569C1501.496,684.756,1485.564,681.475,1471.357,674.301C1457.882,667.497,1444.326,658.025,1435.99,646.465C1427.848,635.173,1422.226,619.709,1421.448,606.061C1420.676,592.516,1424.206,577.612,1431.156,564.894C1439.092,550.371,1454.53,535.824,1469.491,525.253C1484.883,514.375,1503.06,507.284,1522.599,501.01C1544.714,493.909,1596,486.653,1596,486.653" stroke="#8024C7" stroke-width="3" fill="none" stroke-linecap="round" stroke-miterlimit="4"></path><path d="M1596,766.83C1596,766.83,1506.896,766.928,1471.357,760.116C1443.561,754.788,1419.414,748.596,1398.995,735.74C1379.562,723.504,1361.423,702.905,1350.754,686.178C1342.391,673.067,1338.912,659.971,1335.64,646.465C1332.44,633.253,1331.11,619.529,1331.108,606.061C1331.105,592.593,1332.456,578.95,1335.624,565.657C1338.895,551.931,1343.71,538.655,1350.754,525.04C1358.839,509.411,1370.783,492.274,1382.915,477.851C1394.93,463.566,1406.987,449.595,1423.116,438.84C1441.146,426.817,1462.604,416.123,1487.437,411.2C1518.363,405.07,1596,412.771,1596,412.771" stroke="#8024C7" stroke-width="3" fill="none" stroke-linecap="round" stroke-miterlimit="4"></path><path d="M200.314,525.253C209.176,535.01,230.198,539.597,249.246,542.998C274.076,547.43,309.063,546.407,337.688,543.478C365.284,540.655,387.24,537.593,418.09,526.396C465.29,509.266,525.601,467.132,588.127,436.364C662.58,399.727,783.283,353.487,836.356,323.232C863.37,307.833,883.513,294.27,894.339,282.828C899.952,276.896,902.916,272.287,904.322,266.667C905.62,261.478,905.535,255.884,903.303,250.505C900.341,243.368,892.153,235.503,884.422,229.137C875.581,221.857,865.84,216.172,852.261,210.265C831.893,201.404,798.952,190.249,771.859,186.269C745.338,182.372,718.683,182.776,691.457,186.131C662.459,189.705,634.807,197.393,603.015,208.426C563.28,222.214,515.788,243.18,472.979,266.667C427.391,291.678,379.317,325.735,338.04,355.556C300.968,382.337,261.235,409.57,235.784,436.364C216.611,456.549,196.112,479.652,192.965,496.678C190.977,507.431,193.642,517.906,200.314,525.253" stroke="#8024C7" stroke-width="3" fill="none" stroke-linecap="round" stroke-miterlimit="4"></path><path d="M1274.818,796C1274.818,796,1282.857,788.998,1285.251,783.838C1288.214,777.452,1289.434,770.179,1289.158,759.596C1288.628,739.232,1273.996,698.989,1270.039,670.707C1266.495,645.385,1264.55,626.963,1265.217,597.98C1266.214,554.686,1286.926,472.342,1283.435,436.364C1281.63,417.763,1277.519,410.064,1270.352,394.91C1260.297,373.648,1229.703,343.184,1223.619,323.232C1219.879,310.969,1217.795,299.704,1223.158,290.909C1230.12,279.493,1252.393,272.503,1271.929,266.667C1297.81,258.935,1332.735,256.969,1366.834,255.293C1406.398,253.348,1455.36,254.299,1495.477,257.997C1531.173,261.288,1596,274.513,1596,274.513" stroke="#8024C7" stroke-width="3" fill="none" stroke-linecap="round" stroke-miterlimit="4"></path><path d="M1101.508,795.533C1101.508,795.533,1148.942,783.784,1165.829,772.43C1180.249,762.734,1192.571,749.023,1199.129,735.354C1205.074,722.963,1204.297,713.648,1205.769,694.949C1209.039,653.416,1210.515,536.969,1204.605,492.929C1201.66,470.98,1198.52,458.732,1191.653,444.444C1185.257,431.138,1176.809,420.275,1165.829,409.401C1152.992,396.687,1134.952,383.91,1117.588,374.567C1100.126,365.172,1080.363,357.806,1061.307,353.262C1042.825,348.855,1023.789,347.316,1005.025,347.259C986.268,347.202,972.013,348.147,948.744,352.916C908.577,361.149,837.715,384.34,787.94,403.388C742.864,420.637,704.457,435.889,662.123,460.606C613.462,489.017,556.356,545.207,514.573,568.212C487.299,583.228,468.553,590.539,442.211,596.817C412.817,603.823,382.769,604.309,345.729,605.669C295.677,607.508,216.156,606.598,168.844,602.475C136.824,599.684,110.296,597.749,88.792,589.899C72.445,583.932,55.344,575.526,48.732,565.657C43.946,558.513,43.535,550.263,44.971,541.414C46.925,529.37,53.821,518.087,65.78,501.01C92.957,462.2,181.097,366.205,225.126,328.654C251.251,306.372,263.355,300.656,293.903,282.828C348.941,250.709,479.019,194.789,533.243,161.616C563.289,143.234,588.347,128.165,599.84,113.131C606.289,104.695,609.602,96.85,609.072,88.889C608.525,80.681,604.299,73.206,595.923,64.646C578.348,46.685,490.452,4.444,490.452,4.444" stroke="#8024C7" stroke-width="3" fill="none" stroke-linecap="round" stroke-miterlimit="4"></path><path d="M1596,202.05C1596,202.05,1253.48,208.894,1149.749,201.065C1093.745,196.838,1061.191,192.58,1021.106,181.826C983.849,171.83,946.426,156.393,916.583,140.589C891.806,127.468,864.095,109.071,852.586,96.97C846.896,90.986,844.427,87.018,842.72,80.808C840.788,73.781,840.073,65.671,842.998,56.566C847.756,41.755,879.753,4,879.753,4" stroke="#8024C7" stroke-width="3" fill="none" stroke-linecap="round" stroke-miterlimit="4"></path><path d="M4,179.618C4,179.618,34.873,168.102,48.241,158.643C62.118,148.824,73.98,136.776,85.416,121.212C99.693,101.781,117.772,70.368,123.78,48.485C128.203,32.379,126.031,4,126.031,4" stroke="#8024C7" stroke-width="3" fill="none" stroke-linecap="round" stroke-miterlimit="4"></path><path d="M4,470.194C4,470.194,43.687,429.568,62.794,404.04C85.434,373.792,109.644,324.092,128.643,298.652C140.516,282.755,148.592,272.356,160.804,262.311C172.771,252.468,182.54,247.816,201.005,238.741C237.501,220.804,330.19,191.013,369.849,170.658C393.022,158.764,408.798,148.393,422.343,137.374C432.326,129.252,441.104,122.657,445.851,113.131C450.523,103.756,453.342,90.35,450.888,80.808C448.514,71.573,442.333,64.94,432.154,56.566C412.224,40.169,327.119,4,327.119,4" stroke="#8024C7" stroke-width="3" fill="none" stroke-linecap="round" stroke-miterlimit="4"></path><path d="M4,640.26C4,640.26,323.942,651.321,410.05,649.348C450.279,648.426,470.93,649.618,498.492,643.307C524.386,637.378,544.744,630.632,571.093,614.141C611.518,588.841,661.038,521.117,707.538,490.44C747.005,464.403,791.481,448.255,828.141,435.144C857.16,424.765,882.256,418.549,908.543,414.009C933.112,409.765,957.559,406.805,980.905,407.843C1003.042,408.826,1025.919,412.461,1045.226,419.138C1062.712,425.185,1078.746,432.753,1092.434,444.444C1107.025,456.907,1120.52,474.032,1129.227,492.929C1138.855,513.827,1142.585,539.026,1145.061,565.657C1148.002,597.301,1148.06,641.508,1142.012,670.707C1137.409,692.934,1130.271,713.146,1119.453,727.273C1110.414,739.077,1098.851,745.749,1085.427,752.78C1069.571,761.085,1054.352,765.966,1029.146,771.537C981.019,782.175,814.27,796,814.27,796" stroke="#8024C7" stroke-width="3" fill="none" stroke-linecap="round" stroke-miterlimit="4"></path><path d="M1596,157.408C1596,157.408,1386.959,164.266,1310.553,162.396C1259.207,161.139,1220.685,158.345,1181.91,153.84C1149.574,150.084,1121.276,146.303,1093.467,139.124C1067.555,132.434,1040.957,124.011,1020.086,113.131C1002.45,103.938,985.385,92.994,974.867,80.808C966.363,70.956,960.049,60.448,958.287,48.485C956.32,35.137,966.445,4,966.445,4" stroke="#8024C7" stroke-width="3" fill="none" stroke-linecap="round" stroke-miterlimit="4"></path><path d="M4,316.623L4,351.343" stroke="#8024C7" stroke-width="3" fill="none" stroke-linecap="round" stroke-miterlimit="4"></path><path d="M4,689.553C4,689.553,159.389,676.499,241.206,678.064C329.152,679.745,455.01,699.589,514.573,701.807C543.412,702.88,561.274,703.603,578.894,701.021C591.601,699.159,601.072,696.739,611.055,691.815C621.334,686.746,629.14,681.556,639.55,670.707C658.474,650.985,685.7,598.553,705.361,573.737C718.818,556.752,726.317,546.179,742.532,533.333C764.224,516.15,800.051,496.224,828.141,485.126C852.6,475.463,876.205,470.24,900.503,467.444C924.451,464.689,951.47,464.342,972.864,468.209C990.877,471.465,1006.719,476.507,1021.106,485.66C1036.13,495.219,1050.972,509.558,1060.639,525.253C1070.616,541.448,1076.493,562.713,1079.353,581.818C1082.14,600.436,1081.452,620.517,1078.093,638.384C1074.886,655.447,1069.369,673.189,1060.433,686.869C1051.925,699.893,1039.032,711.017,1026.618,719.192C1014.949,726.876,1003.166,730.869,988.584,735.354C970.268,740.986,952.932,744.369,924.623,747.976C870.124,754.922,738.833,747.765,683.417,762.143C651.933,770.312,613.16,796,613.16,796" stroke="#8024C7" stroke-width="3" fill="none" stroke-linecap="round" stroke-miterlimit="4"></path><path d="M1596,117.517C1596,117.517,1452.858,131.492,1382.915,130.227C1314.887,128.996,1230.032,119.993,1181.91,110.919C1154.217,105.696,1137.063,100.712,1117.588,92.63C1099.883,85.283,1081.344,75.785,1069.347,65.665C1060.152,57.909,1053.079,50.28,1048.959,40.404C1044.583,29.913,1044.889,4,1044.889,4" stroke="#8024C7" stroke-width="3" fill="none" stroke-linecap="round" stroke-miterlimit="4"></path><path d="M4,736.489C4,736.489,95.515,716.915,144.724,713.54C198.28,709.866,260.619,710.627,313.568,717.71C361.906,724.177,421.117,738.827,450.251,751.347C465.431,757.869,474.781,763.682,482.412,771.979C488.848,778.976,495.126,796,495.126,796" stroke="#8024C7" stroke-width="3" fill="none" stroke-linecap="round" stroke-miterlimit="4"></path><path d="M828.141,565.384C837.998,556.424,848.631,551.955,860.302,547.631C872.64,543.059,887.797,539.994,900.503,539.257C911.769,538.604,922.235,539.248,932.663,542.145C943.569,545.174,955.953,550.569,964.423,557.576C972.263,564.061,978.686,573.289,982.505,581.818C985.958,589.532,987.646,597.424,987.445,606.061C987.212,616.086,984.21,628.885,979.274,638.384C974.439,647.688,966.989,655.926,958.402,662.626C949.068,669.91,936.695,675.715,924.623,679.585C912.098,683.601,897.845,685.526,884.422,685.873C871.044,686.219,856.611,685.124,844.221,681.7C832.613,678.492,820.276,673.324,812.06,666.723C805.095,661.127,799.546,654.539,796.565,646.465C793.208,637.368,791.648,625.451,794.811,614.141C799.083,598.865,815.643,576.745,828.141,565.384" stroke="#8024C7" stroke-width="3" fill="none" stroke-linecap="round" stroke-miterlimit="4"></path><path d="M1596,73.801C1596,73.801,1497.909,92.863,1447.236,95.344C1394.797,97.912,1335.012,95.67,1286.432,87.949C1244.844,81.34,1198.366,69.123,1172.71,56.566C1157.671,49.205,1147.807,41.859,1140.222,32.323C1133.594,23.992,1127.768,4,1127.768,4" stroke="#8024C7" stroke-width="3" fill="none" stroke-linecap="round" stroke-miterlimit="4"></path><path d="M29.408,796C29.408,796,76.781,770.189,104.523,762.829C135.904,754.504,174.216,751.827,209.045,752.047C243.898,752.268,283.738,755.246,313.568,764.168C338.049,771.49,376.886,796,376.886,796" stroke="#8024C7" stroke-width="3" fill="none" stroke-linecap="round" stroke-miterlimit="4"></path><path d="M1579.848,4C1579.848,4,1567.633,18.51,1559.016,24.242C1548.753,31.07,1537.538,35.956,1521.11,40.404C1493.668,47.835,1445.177,54.809,1407.035,54.838C1368.665,54.867,1319.364,47.837,1291.57,40.404C1274.937,35.956,1263.531,31.094,1253.162,24.242C1244.498,18.517,1232.267,4,1232.267,4" stroke="#8024C7" stroke-width="3" fill="none" stroke-linecap="round" stroke-miterlimit="4"></path></svg>