<svg class=" " viewBox="0 0 1600 800"><path d="M1241.827,210.101C1244.946,219.049,1257.878,227.397,1270.042,234.343C1286.522,243.754,1312.27,250.851,1334.673,256.329C1357.872,262.002,1380.186,266.403,1407.035,267.394C1440.413,268.627,1491.283,266.925,1519.822,258.586C1539.068,252.962,1555.98,244.273,1565.204,234.343C1571.827,227.215,1576.412,218.063,1575.945,210.101C1575.463,201.894,1568.234,192.479,1561.604,185.859C1554.558,178.822,1546.605,174.526,1534.197,169.697C1512.518,161.259,1472.936,152.149,1439.196,149.491C1401.573,146.526,1349.17,150.525,1318.593,155.807C1299.196,159.159,1284.884,163.587,1272.021,169.697C1261.717,174.592,1251.128,179.789,1246.231,187.23C1242,193.661,1239.359,203.021,1241.827,210.101" stroke="#8024C7" stroke-width="3" fill="none" stroke-linecap="round" stroke-miterlimit="4"></path><path d="M1302.513,795.903C1302.513,795.903,1276.204,785.01,1270.816,775.758C1265.814,767.169,1265.634,754.119,1269.194,743.434C1273.729,729.821,1289.021,714.754,1302.766,703.03C1317.869,690.15,1337.8,679.751,1357.327,670.707C1377.785,661.233,1401.048,653.248,1423.116,647.983C1444.428,642.898,1466.713,639.184,1487.437,639.192C1506.824,639.199,1527.852,640.768,1543.719,646.927C1557.34,652.215,1571.893,660.509,1578.183,670.707C1583.735,679.711,1585.629,692.288,1582.683,703.03C1578.976,716.55,1564.847,732.03,1550.434,743.434C1533.001,757.228,1506.8,767.183,1482.06,775.758C1455.003,785.136,1393.897,796,1393.897,796" stroke="#8024C7" stroke-width="3" fill="none" stroke-linecap="round" stroke-miterlimit="4"></path><path d="M574.142,796C574.142,796,573.732,782.334,570.341,775.758C565.981,767.305,556.283,757.835,546.734,751.25C536.314,744.065,522.61,738.924,509.473,735.354C495.862,731.654,483.521,729.324,466.332,729.82C440.509,730.565,401.019,737.226,369.849,747.897C337.568,758.949,276.192,796,276.192,796" stroke="#8024C7" stroke-width="3" fill="none" stroke-linecap="round" stroke-miterlimit="4"></path><path d="M1596,286.958C1596,286.958,1562.214,298.27,1543.719,301.73C1523.549,305.503,1505.551,307.987,1479.397,307.824C1438.437,307.568,1374.023,301.541,1321.834,290.909C1268.294,280.002,1196.017,258.313,1162.262,242.424C1144.942,234.272,1133.319,227.62,1125.654,218.182C1119.747,210.907,1115.245,201.825,1116.02,193.939C1116.836,185.643,1124.245,177.044,1131.703,169.697C1141.086,160.454,1153.155,152.926,1170.447,145.455C1199.315,132.982,1249.411,119.573,1293.651,113.131C1343.499,105.873,1403.409,104.686,1455.276,107.861C1503.953,110.841,1596,129.832,1596,129.832" stroke="#8024C7" stroke-width="3" fill="none" stroke-linecap="round" stroke-miterlimit="4"></path><path d="M1152.675,796C1152.675,796,1163.212,765.259,1172.387,751.515C1182.207,736.804,1193.082,725.228,1210.797,711.111C1239.134,688.529,1289.58,657.646,1333.512,638.384C1378.908,618.48,1440.256,601.392,1479.397,594.623C1504.849,590.222,1523.441,590.257,1543.719,591.338C1562.102,592.318,1596,599.646,1596,599.646" stroke="#8024C7" stroke-width="3" fill="none" stroke-linecap="round" stroke-miterlimit="4"></path><path d="M1589.225,796L1596,793.168" stroke="#8024C7" stroke-width="3" fill="none" stroke-linecap="round" stroke-miterlimit="4"></path><path d="M665.691,796C665.691,796,661.405,771.079,653.861,759.596C644.331,745.088,625.369,730.308,608.028,719.192C589.861,707.547,567.841,698.121,546.734,692C525.949,685.973,503.878,682.871,482.412,682.478C460.997,682.086,439.704,685.092,418.09,689.605C395.22,694.381,373.074,701.881,348.896,711.111C320.873,721.809,288.09,736.855,260.339,751.515C234.261,765.291,186.789,796,186.789,796" stroke="#8024C7" stroke-width="3" fill="none" stroke-linecap="round" stroke-miterlimit="4"></path><path d="M1596,329.225C1596,329.225,1541.788,340.684,1511.558,341.729C1476.791,342.931,1448.809,340.467,1398.995,332.946C1297.382,317.603,1020.247,237.735,940.704,229.575C913.17,226.75,907.9,228.436,884.422,230.553C844.477,234.155,766.766,254.354,723.618,256.915C694.851,258.623,674.4,257.685,651.256,253.735C629.016,249.939,606.677,242.726,587.242,234.343C569.467,226.676,553.398,217.451,538.693,206.525C524.305,195.832,509.204,183.35,499.775,169.697C491.252,157.354,483.652,141.537,482.895,129.293C482.288,119.483,485.682,110.476,490.452,102.219C495.733,93.077,504.775,84.591,514.573,77.614C525.705,69.687,540.447,63.269,554.774,58.575C569.831,53.643,584.119,49.855,603.015,49.254C629.602,48.408,664.194,51.123,699.497,61.6C747.33,75.794,818.09,124.543,860.302,139.216C885.946,148.13,903.105,152.705,924.623,153.557C945.987,154.402,962.964,150.308,988.945,144.476C1030.776,135.088,1102.605,105.499,1149.749,94.5C1185.656,86.123,1209.11,82.897,1246.231,79.217C1296.203,74.264,1364.517,71.129,1423.116,72.049C1481.099,72.96,1596,84.503,1596,84.503" stroke="#8024C7" stroke-width="3" fill="none" stroke-linecap="round" stroke-miterlimit="4"></path><path d="M1596,552.457C1596,552.457,1556.063,548.928,1535.678,549.917C1514.536,550.943,1497.184,552.679,1471.357,558.918C1429.82,568.95,1364.683,590.838,1312.71,614.141C1258.503,638.446,1192.298,676.175,1153.055,703.03C1127.753,720.345,1110.683,735.191,1094.577,751.515C1081.125,765.15,1061.307,792.759,1061.307,792.759" stroke="#8024C7" stroke-width="3" fill="none" stroke-linecap="round" stroke-miterlimit="4"></path><path d="M766.917,796C766.917,796,743.311,760.001,725.632,743.434C704.016,723.18,671.253,702.599,643.216,686.955C616.912,672.278,589.414,659.246,562.814,651.328C538.526,644.098,513.898,640.045,490.452,639.538C468.415,639.061,448.494,642.145,426.131,647.179C400.538,652.939,378.977,660.226,345.729,674.232C286.702,699.098,107.684,796,107.684,796" stroke="#8024C7" stroke-width="3" fill="none" stroke-linecap="round" stroke-miterlimit="4"></path><path d="M1596,371.4C1596,371.4,1556.151,379.244,1535.678,380.048C1514.624,380.876,1501.104,380.05,1471.357,375.935C1401.683,366.297,1211.413,317.091,1125.628,301.867C1075.279,292.932,1044.626,287.112,1005.025,284.844C966.949,282.664,935.584,283.681,892.462,287.751C833.317,293.333,728.738,318.541,683.417,321.998C661.789,323.648,651.164,323.322,635.176,321.51C619.001,319.678,603.316,316.512,586.935,310.951C568.553,304.711,549.621,295.277,530.653,284.522C509.471,272.513,486.276,256.681,466.332,241.217C447.224,226.402,427.218,209.967,413.129,193.939C401.452,180.656,390.878,166.839,385.607,153.535C381.295,142.651,379.64,132.479,380.509,121.212C381.499,108.382,386.614,93.686,393.47,80.808C401.021,66.625,413.108,52.919,425.353,40.404C438.261,27.211,469.47,4,469.47,4" stroke="#8024C7" stroke-width="3" fill="none" stroke-linecap="round" stroke-miterlimit="4"></path><path d="M1596,43.518C1596,43.518,1258.465,39.021,1178.226,32.323C1145.539,29.595,1126.319,29.451,1109.548,22.662C1098.209,18.072,1083.925,4,1083.925,4" stroke="#8024C7" stroke-width="3" fill="none" stroke-linecap="round" stroke-miterlimit="4"></path><path d="M1596,506.997C1596,506.997,1561.395,505.05,1543.719,506.558C1525.231,508.134,1510.649,510.312,1487.437,516.714C1447.207,527.811,1383.239,552.087,1326.633,577.192C1259.765,606.849,1177.869,648.083,1113.453,686.869C1055.982,721.473,956.905,796,956.905,796" stroke="#8024C7" stroke-width="3" fill="none" stroke-linecap="round" stroke-miterlimit="4"></path><path d="M374.239,4C374.239,4,348.252,33.398,337.688,49.165C327.459,64.432,317.333,81.281,311.556,96.97C306.528,110.624,303.266,124.645,303.141,137.374C303.029,148.737,304.698,158.804,309.213,169.697C314.722,182.988,324.373,195.732,336.864,210.101C354.633,230.542,384.768,255.073,410.05,276.892C435.922,299.22,466.463,325.873,490.452,342.478C508.045,354.656,522.908,364.026,538.693,370.529C552.313,376.14,564.762,379.144,578.894,381.003C594.124,383.006,604.674,383.688,627.136,381.325C681.238,375.635,822.151,330.759,900.503,321.272C958.396,314.261,1003.911,314.147,1053.266,317.488C1100.246,320.667,1143.131,329.732,1189.95,339.534C1240.428,350.103,1299.708,364.798,1345.771,379.798C1383.822,392.189,1427.409,408.334,1447.891,420.202C1457.839,425.967,1464.387,430.217,1468.14,436.364C1471.134,441.267,1473.173,446.743,1471.4,452.525C1468.435,462.195,1452.463,474.379,1438.516,484.848C1419.847,498.862,1399.719,507.61,1366.461,525.253C1294.545,563.402,1101.379,663.268,1021.106,698.263C979.653,716.334,952.854,727.796,924.623,734.336C903.705,739.182,886.324,740.652,868.342,739.839C851.585,739.082,841.618,737.989,820.101,730.67C769.622,713.501,629.091,629.54,578.894,608.796C557.141,599.806,546.93,596.274,530.653,593.027C514.76,589.857,501.355,587.332,482.412,589.266C454.007,592.166,422.113,602.296,377.889,619.47C293.303,652.317,21.147,796,21.147,796" stroke="#8024C7" stroke-width="3" fill="none" stroke-linecap="round" stroke-miterlimit="4"></path><path d="M4,760.71C4,760.71,105.041,718.923,152.764,695.401C198.928,672.647,243.735,649.414,286.021,622.222C327.841,595.33,377.312,560.116,405.223,533.333C423.312,515.976,439.5,500.317,444.591,484.848C448.255,473.715,446.45,463.952,443.1,452.525C438.693,437.492,429.942,424.204,415.062,404.04C384.11,362.098,279.807,265.607,250.376,226.263C237.411,208.93,230.381,199.062,226.305,185.859C222.923,174.902,223.063,164.796,224.315,153.535C225.742,140.699,229.031,129.331,236.062,113.131C248.275,84.995,300.897,4,300.897,4" stroke="#8024C7" stroke-width="3" fill="none" stroke-linecap="round" stroke-miterlimit="4"></path><path d="M583.28,484.848C588.47,476.945,596.715,469.292,609.515,460.606C634.028,443.972,686.602,420.628,727.665,404.04C770.085,386.905,817.485,370.321,860.302,359.895C898.96,350.483,934.583,344.462,972.864,342.148C1012.26,339.767,1052.214,341.579,1093.467,346.451C1137.813,351.688,1188.413,362.121,1230.151,374.082C1266.943,384.625,1310.145,400.857,1331.615,412.121C1342.589,417.878,1348.677,421.512,1354.856,428.283C1360.989,435.002,1367.907,444.277,1368.622,452.525C1369.309,460.452,1364.86,469.225,1359.952,476.768C1354.215,485.583,1347.164,491.49,1334.472,501.01C1307.332,521.366,1245.615,555.845,1195.45,581.818C1139.426,610.825,1067.394,646.654,1013.065,665.238C971.817,679.348,935.917,689.841,900.503,691.618C869.397,693.179,841.546,688.516,812.06,680.063C779.906,670.845,747.514,654.823,715.578,635.993C679.975,615,632.079,579.303,609.609,557.576C597.039,545.421,589.239,535.799,583.968,525.253C579.86,517.033,577.322,508.235,577.614,501.01C577.856,495.038,579.687,490.321,583.28,484.848" stroke="#8024C7" stroke-width="3" fill="none" stroke-linecap="round" stroke-miterlimit="4"></path><path d="M4,720.077C4,720.077,74.371,694.969,108.196,678.788C142.431,662.41,180.546,641.832,208.112,622.222C230.153,606.543,248.941,591.146,263.228,573.737C275.71,558.528,286.346,541.238,291.319,525.253C295.548,511.657,296.355,497.366,294.48,484.848C292.743,473.259,289.851,465.216,281.738,452.525C265.801,427.597,217.712,390.252,189.183,355.556C160.191,320.296,122.349,266.85,109.404,242.424C103.804,231.857,100.587,227.713,100.266,218.182C99.818,204.856,105.204,189.688,114.906,169.697C134.292,129.752,230.82,4,230.82,4" stroke="#8024C7" stroke-width="3" fill="none" stroke-linecap="round" stroke-miterlimit="4"></path><path d="M690.402,492.929C694.957,484.38,700.867,477.045,710.107,468.687C724.276,455.871,747.718,440.657,771.459,428.283C800.422,413.187,838.848,397.844,873.04,387.879C906.006,378.271,939.053,371.918,972.864,368.825C1007.154,365.687,1042.689,366.197,1077.387,369.464C1112.373,372.758,1149.822,379.472,1181.91,388.662C1210.749,396.921,1244.306,410.169,1261.756,420.202C1271.379,425.735,1277.121,429.653,1282.264,436.364C1287.431,443.108,1292.568,452.511,1292.635,460.606C1292.702,468.673,1287.868,477.269,1282.736,484.848C1276.812,493.597,1269.291,500.054,1257.643,509.091C1237.154,524.987,1200.029,547.533,1165.693,565.657C1125.282,586.987,1072.262,611.892,1029.146,626.61C992.579,639.092,957.391,648.975,924.623,651.973C896.27,654.567,870.585,653.157,844.221,647.5C816.953,641.648,787.996,630.542,763.819,616.576C740.384,603.039,714.379,584.436,700.91,565.657C690.146,550.649,683.375,530.615,682.99,517.172C682.72,507.758,686.298,500.63,690.402,492.929" stroke="#8024C7" stroke-width="3" fill="none" stroke-linecap="round" stroke-miterlimit="4"></path><path d="M4,481.646C4,481.646,44.689,481.166,64.322,483.804C83.537,486.386,104.685,490.595,120.603,497.065C133.687,502.382,145.73,508.185,154.095,517.172C162.151,525.827,169.452,538.515,170.473,549.495C171.458,560.078,166.915,571.715,161.055,581.818C154.288,593.488,142.42,604.117,129.867,614.141C115.07,625.957,96.113,636.877,76.486,646.465C54.603,657.155,4,674.111,4,674.111" stroke="#8024C7" stroke-width="3" fill="none" stroke-linecap="round" stroke-miterlimit="4"></path><path d="M150.688,4C150.688,4,138.081,28.852,129.452,40.404C120.232,52.745,108.654,65.11,96.482,75.431C84.272,85.785,70.716,94.738,56.281,102.403C41.313,110.352,8.04,121.973,8.04,121.973" stroke="#8024C7" stroke-width="3" fill="none" stroke-linecap="round" stroke-miterlimit="4"></path><path d="M791.513,468.687C805.415,455.811,824.202,445.731,842.863,436.364C862.964,426.273,885.821,417.554,908.543,410.988C931.796,404.269,956.028,399.373,980.905,396.776C1006.881,394.064,1035.295,393.71,1061.307,395.641C1086.146,397.485,1111.343,401.472,1133.668,407.492C1153.903,412.948,1175.245,418.877,1189.95,428.962C1202.312,437.44,1215.335,451.186,1218.436,460.606C1220.351,466.423,1218.98,471.136,1216.865,476.768C1213.998,484.4,1208.313,492.4,1199.495,501.01C1184.506,515.644,1154.724,534.845,1128.282,549.495C1098.636,565.92,1061.743,582.182,1029.146,593.07C999.289,603.042,968.883,611.092,940.704,613.833C915.546,616.28,890.923,615.55,868.342,611.179C847.313,607.109,826.49,600.435,809.26,589.899C792.538,579.674,773.579,564.481,766.057,549.495C759.821,537.071,758.074,521.915,761.533,509.091C765.38,494.826,778.854,480.412,791.513,468.687" stroke="#8024C7" stroke-width="3" fill="none" stroke-linecap="round" stroke-miterlimit="4"></path><path d="M900.503,458.474C924.881,445.426,958.836,435.946,988.945,432.259C1019.071,428.57,1057.829,431.143,1081.209,436.364C1096.483,439.774,1108.907,444.976,1117.588,451.526C1124.066,456.413,1129.866,462.076,1131.268,468.687C1132.765,475.751,1129.97,485.062,1124.943,492.929C1117.781,504.138,1101.125,515.614,1085.683,525.253C1067.443,536.638,1042.995,547.282,1021.106,554.657C1000.003,561.767,976.801,567.159,956.784,569.22C939.662,570.983,923.694,571.035,908.543,568.378C894.324,565.885,878.949,561.328,868.342,554.62C859.469,549.009,850.828,542.009,847.588,533.333C844.206,524.28,844.209,511.424,849.459,501.01C856.98,486.092,879.813,469.548,900.503,458.474" stroke="#8024C7" stroke-width="3" fill="none" stroke-linecap="round" stroke-miterlimit="4"></path></svg>