<svg class=" " viewBox="0 0 1600 800"><path d="M659.459,525.253C662.529,536.484,669.583,548.463,678.333,557.576C687.843,567.48,701.817,575.574,715.578,581.4C730.149,587.57,747.629,591.067,763.819,592.796C779.793,594.502,796.149,594.364,812.06,591.869C828.318,589.319,846.07,584.768,860.302,577.372C873.765,570.374,887.34,560.315,895.728,549.495C903.152,539.918,908.287,528.177,909.959,517.172C911.565,506.61,910.279,495.125,906.289,484.848C901.868,473.463,892.789,461.434,882.837,452.525C872.34,443.129,857.619,435.787,844.221,430.562C831.31,425.527,818.126,422.793,804.02,421.297C788.765,419.68,771.635,419.57,755.779,422.03C739.686,424.526,721.963,429.371,708.194,436.364C695.81,442.653,684.362,450.904,676.122,460.606C668.312,469.803,662.001,481.503,659.296,492.566C656.723,503.091,656.591,514.757,659.459,525.253" stroke="#8024C7" stroke-width="3" fill="none" stroke-linecap="round" stroke-miterlimit="4"></path><path d="M4,771.627C4,771.627,60.088,774.184,80.402,769.133C95.116,765.474,114.198,758.617,116.434,751.515C117.951,746.694,111.948,739.356,107.475,735.354C102.709,731.088,96.987,729.586,88.114,727.273C70.72,722.739,8.04,718.059,8.04,718.059" stroke="#8024C7" stroke-width="3" fill="none" stroke-linecap="round" stroke-miterlimit="4"></path><path d="M267.136,4C267.136,4,302.233,28.615,321.608,38.602C341.669,48.943,360.178,57.38,385.707,64.646C420.798,74.635,480.994,85.595,514.573,86.594C535.972,87.231,552.414,85.328,567.347,80.808C579.488,77.133,592.128,72.256,598.497,64.646C603.915,58.174,606.854,49.093,606.038,40.404C605.006,29.405,586.935,4.482,586.935,4.482" stroke="#8024C7" stroke-width="3" fill="none" stroke-linecap="round" stroke-miterlimit="4"></path><path d="M582.833,541.414C586.96,560.994,597.33,581.374,611.055,595.848C625.218,610.783,646.161,620.708,667.337,628.928C691.097,638.152,719.555,643.219,747.739,645.998C778.276,649.009,814.415,649.373,844.221,644.779C871.025,640.647,897.14,634.229,918.921,622.222C939.756,610.738,960.353,593.776,972.864,575.45C984.51,558.394,991.85,536.678,993.587,517.172C995.259,498.391,991.468,477.958,984.223,460.606C976.82,442.875,963.807,425.849,949.098,412.121C933.565,397.625,912.689,385.122,892.462,376.775C872.354,368.477,851.441,364.232,828.141,362.067C801.154,359.558,767.415,360.845,739.698,365.556C714.069,369.912,688.845,376.771,667.337,387.723C647.026,398.066,627.068,412.548,613.394,428.283C601.083,442.45,592.138,458.328,586.935,476.169C581.246,495.672,578.571,521.196,582.833,541.414" stroke="#8024C7" stroke-width="3" fill="none" stroke-linecap="round" stroke-miterlimit="4"></path><path d="M1046.717,169.697C1048.135,176.272,1054.445,182.043,1061.307,186.915C1070.68,193.569,1086.547,198.638,1100.619,202.02C1115.86,205.683,1129.456,207.155,1149.749,207.19C1182.783,207.247,1248.422,201.231,1279.989,193.939C1298.862,189.58,1312.487,185.501,1323.904,177.778C1333.441,171.327,1344.724,161.139,1345.773,153.535C1346.552,147.884,1342.563,142.08,1337.768,137.374C1330.823,130.557,1318.063,125.428,1303.543,121.212C1281.131,114.705,1245.079,110.512,1214.07,110.058C1180.609,109.567,1138.462,112.002,1109.548,119.988C1087.269,126.142,1062.616,135.73,1053.266,146.776C1047.484,153.607,1045.261,162.939,1046.717,169.697" stroke="#8024C7" stroke-width="3" fill="none" stroke-linecap="round" stroke-miterlimit="4"></path><path d="M213.85,796C213.85,796,240.28,783.829,250.106,775.758C258.708,768.692,267.152,760.218,270.718,751.515C273.835,743.909,275.272,734.674,272.498,727.273C269.28,718.687,260.733,710.942,249.246,704.261C229.738,692.915,192.82,684.673,158.394,678.788C114.89,671.352,8.04,668.965,8.04,668.965" stroke="#8024C7" stroke-width="3" fill="none" stroke-linecap="round" stroke-miterlimit="4"></path><path d="M177.444,4C177.444,4,241.268,46.59,277.878,64.646C318.146,84.507,365.044,103.038,410.05,116.39C454.679,129.629,495.65,137.948,546.734,144.615C610.493,152.937,720.702,147.461,763.819,156.767C783.017,160.91,792.01,164.822,804.02,172.323C816.111,179.875,827.649,190.402,836.063,202.02C844.55,213.739,854.764,230.7,854.603,242.424C854.478,251.565,851.695,258.646,842.664,266.667C818.976,287.704,709.143,310.269,667.337,328.533C642.885,339.215,628.845,345.217,611.055,358.159C591.449,372.422,570.158,391.171,555.773,412.121C541.212,433.328,530.918,458.822,524.519,484.848C517.727,512.469,516.067,551.539,517.722,573.737C518.732,587.276,520.955,596.4,525.126,606.061C529.039,615.122,532.787,622.68,541.36,630.303C554.731,642.192,579.434,654.141,604.545,662.626C637.332,673.706,684.339,679.734,723.618,684.156C761.522,688.424,800.959,690.374,836.181,689.266C867.477,688.282,897.795,685.686,924.623,679.655C948.093,674.378,970.814,667.709,988.945,657.333C1004.912,648.195,1018.333,637.416,1029.146,623.089C1040.967,607.426,1049.748,585.834,1055.332,565.657C1061.002,545.172,1063.371,521.786,1062.618,501.01C1061.91,481.471,1058.565,465.778,1052.05,444.444C1042.862,414.358,1009.793,362.417,1006.63,339.394C1005.167,328.749,1006.843,321.269,1009.924,315.152C1012.385,310.264,1015.283,307.829,1021.106,304.249C1033.087,296.881,1054.415,290.441,1083.67,282.828C1148.071,266.069,1331.877,247.905,1398.995,225.675C1432.691,214.515,1455.492,201.39,1471.357,189.791C1480.689,182.967,1485.88,177.236,1490.785,169.697C1495.53,162.404,1500.627,154.101,1500.61,145.455C1500.592,135.489,1494.755,121.737,1487.437,113.302C1479.857,104.565,1468.271,99.899,1455.276,94.437C1437.902,87.135,1414.278,81.525,1390.955,76.966C1363.99,71.694,1337.126,68.421,1302.513,66.22C1253.741,63.119,1188.519,61.318,1125.628,65.14C1053.128,69.547,946.065,92.014,892.462,95.034C864.422,96.614,848.457,98.428,828.141,94.072C808.309,89.82,791.826,81.484,771.859,69.779C745.325,54.223,685.868,4,685.868,4" stroke="#8024C7" stroke-width="3" fill="none" stroke-linecap="round" stroke-miterlimit="4"></path><path d="M316.892,796C316.892,796,390.815,731.642,426.131,716.59C453.595,704.885,470.798,703.97,506.533,702.192C576.654,698.705,721.511,721.273,820.101,726.642C907.887,731.422,1017.945,725.163,1069.347,734.367C1093.258,738.649,1104.474,742.192,1120.514,751.515C1138.35,761.883,1170.256,796,1170.256,796" stroke="#8024C7" stroke-width="3" fill="none" stroke-linecap="round" stroke-miterlimit="4"></path><path d="M1471.357,795.665L1596,740.686" stroke="#8024C7" stroke-width="3" fill="none" stroke-linecap="round" stroke-miterlimit="4"></path><path d="M1596,568.776C1596,568.776,1569.478,602.162,1551.311,614.141C1531.306,627.334,1509.75,634.315,1479.397,642.288C1431.179,654.953,1339.808,667.443,1286.432,669.614C1248.843,671.144,1212.724,671.911,1189.95,663.882C1175.396,658.752,1165.955,650.697,1157.789,640.996C1149.698,631.385,1145.921,623.204,1141.037,606.061C1129.631,566.021,1114.192,438.407,1118.27,395.96C1120.094,376.972,1122.452,366.887,1130.746,355.556C1139.987,342.931,1156.891,333.821,1173.869,325.638C1194.241,315.818,1215.004,311.627,1246.231,303.906C1301.606,290.213,1426.632,276,1479.397,258.322C1508.354,248.62,1524.23,240.16,1543.719,226.973C1563.071,213.878,1596,179.589,1596,179.589" stroke="#8024C7" stroke-width="3" fill="none" stroke-linecap="round" stroke-miterlimit="4"></path><path d="M1596,30.404C1596,30.404,1558.445,40.007,1527.638,41.943C1464.665,45.901,1335.994,30.895,1238.191,29.869C1137.741,28.815,999.272,39.292,932.663,36.196C900.146,34.684,884.095,33.207,860.302,27.938C836.062,22.571,788.601,4,788.601,4" stroke="#8024C7" stroke-width="3" fill="none" stroke-linecap="round" stroke-miterlimit="4"></path><path d="M97.142,4C97.142,4,165.356,45.732,201.091,64.646C237.459,83.896,267.583,99.071,313.568,118.352C382.774,147.37,535.895,192.626,578.894,214.774C593.931,222.519,601.5,226.24,607.334,234.343C612.32,241.27,616.448,248.027,614.301,258.586C608.707,286.091,528.754,356.161,506.533,391.548C493.544,412.232,490.169,422.302,481.61,444.444C468.193,479.153,453.157,551.834,439.509,581.818C432.261,597.741,426.313,606.868,418.09,616.214C410.882,624.408,405.031,630.834,393.97,635.91C376.978,643.708,354.358,646.557,321.608,648.762C253.933,653.318,8.04,635.793,8.04,635.793" stroke="#8024C7" stroke-width="3" fill="none" stroke-linecap="round" stroke-miterlimit="4"></path><path d="M4,606.061C4,606.061,203.331,607.881,257.286,602.59C282.931,600.075,296.679,597.577,313.568,592.243C328.415,587.555,342.215,581.43,353.769,573.808C364.222,566.913,372.856,558.79,380.594,549.495C388.523,539.971,392.606,533.464,400.592,517.172C421.078,475.374,486.888,325.251,488.109,282.828C488.558,267.227,484.811,260.363,478.115,250.505C469.847,238.333,459.604,232.067,437.922,218.182C371.762,175.816,8.04,4.209,8.04,4.209" stroke="#8024C7" stroke-width="3" fill="none" stroke-linecap="round" stroke-miterlimit="4"></path><path d="M402.01,795.857C402.01,795.857,465.024,763.773,498.492,755.252C532.021,746.716,561.56,744.958,603.015,744.738C663.824,744.416,762.707,754.713,828.141,764.976C879.657,773.055,964.824,795.753,964.824,795.753" stroke="#8024C7" stroke-width="3" fill="none" stroke-linecap="round" stroke-miterlimit="4"></path><path d="M1596,343.182C1596,343.182,1587.9,343.763,1583.92,346.807C1576.933,352.15,1570.463,364.607,1563.385,379.798C1550.144,408.217,1536.055,481.143,1521.214,509.091C1513.07,524.427,1505.847,532.012,1496.074,541.414C1486.224,550.889,1476.297,558.588,1462.28,565.657C1443.465,575.145,1415.758,584.346,1390.955,588.653C1365.257,593.115,1334.744,594.336,1310.553,591.226C1289.889,588.569,1269.637,583.725,1254.271,574.568C1240.55,566.391,1228.975,554.69,1221.23,541.414C1213.197,527.645,1210.058,510.911,1207.677,492.929C1204.815,471.316,1204.386,439.291,1208.353,420.202C1211.108,406.941,1215.469,396.836,1222.034,387.879C1228.284,379.353,1236.146,373.347,1246.231,367.242C1259.245,359.364,1277.15,352.661,1295.359,347.475C1316.672,341.405,1336.623,337.708,1366.834,335.033C1418.116,330.491,1543.86,347.968,1575.879,334.13C1587.852,328.955,1596,312.928,1596,312.928" stroke="#8024C7" stroke-width="3" fill="none" stroke-linecap="round" stroke-miterlimit="4"></path><path d="M4,48.268C4,48.268,116.867,94.158,170.989,121.212C224.838,148.13,289.603,183.206,327.959,210.101C352.62,227.393,372.812,244.249,384.62,258.586C391.837,267.348,395.236,273.853,398.338,282.828C401.7,292.552,403.429,302.897,403.246,315.152C403.004,331.403,398.452,350.571,392.922,371.717C385.538,399.955,370.905,443.734,359.594,468.687C351.972,485.502,345.772,497.395,336.454,509.091C327.596,520.211,317.197,529.845,305.528,537.643C293.558,545.643,280.16,551.322,265.327,556.216C248.427,561.793,233.832,564.836,209.045,567.897C162.211,573.681,4,576.333,4,576.333" stroke="#8024C7" stroke-width="3" fill="none" stroke-linecap="round" stroke-miterlimit="4"></path><path d="M504.669,796C504.669,796,584.583,780.167,627.136,779.739C673.337,779.274,771.859,795.999,771.859,795.999" stroke="#8024C7" stroke-width="3" fill="none" stroke-linecap="round" stroke-miterlimit="4"></path><path d="M4,88.296C4,88.296,99.999,123.883,141.814,145.455C179.598,164.947,216.004,186.69,245.066,210.101C270.1,230.268,294.471,251.38,308.246,274.747C320.149,294.939,325.925,319.224,327.637,339.394C329.093,356.553,325.588,371.314,321.688,387.879C317.366,406.239,309.413,428.579,301.659,444.444C295.46,457.13,289.46,466.981,280.994,476.768C272.137,487.006,263.537,496.178,249.246,504.241C227.978,516.24,194.949,526.412,160.804,532.961C116.418,541.474,4,543.168,4,543.168" stroke="#8024C7" stroke-width="3" fill="none" stroke-linecap="round" stroke-miterlimit="4"></path><path d="M4,133.082C4,133.082,65.695,154.251,94.112,169.697C122.749,185.262,152.572,204.895,175.085,226.263C195.592,245.727,214.408,268.119,225.459,290.909C235.418,311.449,241.535,334.313,241.348,355.556C241.166,376.294,234.923,399.214,225.126,416.893C215.603,434.078,201.282,449.14,184.115,460.606C164.725,473.557,139.355,481.391,112.563,487.577C80.57,494.965,4,497.745,4,497.745" stroke="#8024C7" stroke-width="3" fill="none" stroke-linecap="round" stroke-miterlimit="4"></path><path d="M4,237.862C4,237.862,23.059,240.088,32.161,244.296C42.515,249.082,53.881,258.222,62.117,266.667C69.692,274.433,75.979,283.064,80.402,292.473C84.84,301.914,88.741,313.14,88.665,323.232C88.591,333.053,85.88,344.612,80.402,352.238C75.005,359.751,65.355,366.782,56.281,368.829C46.711,370.989,32.816,368.872,24.121,363.686C15.357,358.46,4,337.43,4,337.43" stroke="#8024C7" stroke-width="3" fill="none" stroke-linecap="round" stroke-miterlimit="4"></path></svg>